#!OML:ASF H:\Dans Jumps\Project 1\Capture day 1\Session 1\subject.ASF
:FULLY-SPECIFIED
:DEGREES
96
root 0.522002 17.5581 -13.7881 5.17266 -1.50996 -1.8964
lowerback -2.64265 -0.346329 0.439305
upperback 2.37804 -0.544564 1.72327
thorax 3.94388 -0.285024 1.49713
lowerneck -13.9656 0.233122 -2.1781
upperneck 30.0755 0.665305 0.824458
head 12.2111 0.149876 0.783585
rclavicle -4.96962e-016 1.13307e-014
rhumerus -27.5479 -17.7228 -77.9667
rradius 23.8753
rwrist 31.8717
rhand -19.516 -26.432
rfingers 7.12502
rthumb 6.80709 -56.3026
lclavicle -4.96962e-016 1.13307e-014
lhumerus -25.181 3.3897 86.3497
lradius 16.3551
lwrist 1.85298
lhand -25.3629 -3.60675
lfingers 7.12502
lthumb 1.16104 26.3698
rfemur -10.9697 -2.62219 20.1666
rtibia 19.8272
rfoot -13.344 -1.70361
rtoes 10.7462
lfemur -9.85715 6.11319 -17.4945
ltibia 18.3197
lfoot -11.1654 4.58925
ltoes -0.633685
97
root 0.522618 17.5578 -13.7871 5.16967 -1.51271 -1.89743
lowerback -2.64622 -0.345383 0.440661
upperback 2.37755 -0.543438 1.72412
thorax 3.94536 -0.284439 1.49729
lowerneck -13.9561 0.233674 -2.17543
upperneck 30.0721 0.665061 0.824526
head 12.2078 0.150113 0.783039
rclavicle -1.64991e-014 7.7526e-015
rhumerus -27.5615 -17.7407 -77.9573
rradius 23.8703
rwrist 31.8922
rhand -19.5147 -26.4315
rfingers 7.12502
rthumb 6.80833 -56.302
lclavicle -1.64991e-014 7.7526e-015
lhumerus -25.1905 3.42627 86.33
lradius 16.3626
lwrist 1.82125
lhand -25.3508 -3.59573
lfingers 7.12502
lthumb 1.17278 26.3808
rfemur -10.9673 -2.62007 20.165
rtibia 19.8351
rfoot -13.3499 -1.70436
rtoes 10.75
lfemur -9.85555 6.1116 -17.4961
ltibia 18.331
lfoot -11.1702 4.59712
ltoes -0.660959
98
root 0.523218 17.5575 -13.7861 5.16629 -1.51529 -1.90058
lowerback -2.64971 -0.344805 0.443099
upperback 2.37801 -0.542922 1.72645
thorax 3.94781 -0.284154 1.49835
lowerneck -13.9503 0.234278 -2.17537
upperneck 30.0708 0.66522 0.826181
head 12.206 0.150417 0.783638
rclavicle -6.11263e-015 7.35503e-015
rhumerus -27.5739 -17.756 -77.9478
rradius 23.8656
rwrist 31.9063
rhand -19.5085 -26.435
rfingers 7.12502
rthumb 6.81431 -56.3054
lclavicle -6.11263e-015 7.35503e-015
lhumerus -25.1982 3.46114 86.3133
lradius 16.3742
lwrist 1.79599
lhand -25.3407 -3.56914
lfingers 7.12502
lthumb 1.18255 26.4073
rfemur -10.9631 -2.61656 20.166
rtibia 19.841
rfoot -13.3564 -1.7079
rtoes 10.745
lfemur -9.853 6.10952 -17.4953
ltibia 18.3417
lfoot -11.1763 4.60579
ltoes -0.686432
99
root 0.523807 17.5573 -13.7851 5.16261 -1.51798 -1.90396
lowerback -2.6541 -0.344093 0.445046
upperback 2.37969 -0.542258 1.72925
thorax 3.95204 -0.283824 1.50017
lowerneck -13.9464 0.235203 -2.1763
upperneck 30.0695 0.665797 0.829035
head 12.2047 0.150952 0.78493
rclavicle 8.84592e-015 6.75868e-015
rhumerus -27.5841 -17.7698 -77.9389
rradius 23.8627
rwrist 31.9111
rhand -19.4946 -26.4438
rfingers 7.12502
rthumb 6.82773 -56.3138
lclavicle 8.84592e-015 6.75868e-015
lhumerus -25.2022 3.49492 86.2979
lradius 16.3813
lwrist 1.76672
lhand -25.3399 -3.57732
lfingers 7.12502
lthumb 1.1833 26.3991
rfemur -10.9575 -2.61278 20.1672
rtibia 19.8455
rfoot -13.3629 -1.71225
rtoes 10.7401
lfemur -9.84889 6.10715 -17.494
ltibia 18.3507
lfoot -11.182 4.6138
ltoes -0.696383
100
root 0.524407 17.5571 -13.7841 5.15931 -1.52135 -1.90671
lowerback -2.65823 -0.343606 0.446127
upperback 2.38089 -0.541852 1.73226
thorax 3.95564 -0.283647 1.50269
lowerneck -13.9426 0.236014 -2.17959
upperneck 30.0688 0.666197 0.833999
head 12.2036 0.151402 0.787409
rclavicle 1.49089e-015 -9.93923e-016
rhumerus -27.5939 -17.7825 -77.93
rradius 23.8586
rwrist 31.9161
rhand -19.48 -26.4548
rfingers 7.12502
rthumb 6.84185 -56.3242
lclavicle 1.49089e-015 -9.93923e-016
lhumerus -25.2043 3.52388 86.2853
lradius 16.3883
lwrist 1.74425
lhand -25.3434 -3.582
lfingers 7.12502
lthumb 1.17989 26.3945
rfemur -10.9523 -2.60828 20.1676
rtibia 19.85
rfoot -13.3699 -1.71675
rtoes 10.7325
lfemur -9.8434 6.10346 -17.4934
ltibia 18.3563
lfoot -11.1858 4.62295
ltoes -0.700439
101
root 0.52502 17.557 -13.7831 5.15643 -1.52641 -1.90661
lowerback -2.66324 -0.34201 0.444524
upperback 2.38264 -0.539825 1.73406
thorax 3.96029 -0.282724 1.50555
lowerneck -13.9409 0.236133 -2.18336
upperneck 30.069 0.665547 0.839759
head 12.2033 0.151429 0.790138
rclavicle -6.31141e-015 5.96354e-016
rhumerus -27.6031 -17.7952 -77.9218
rradius 23.8548
rwrist 31.9176
rhand -19.466 -26.4646
rfingers 7.12502
rthumb 6.85534 -56.3336
lclavicle -6.31141e-015 5.96354e-016
lhumerus -25.201 3.54559 86.275
lradius 16.3876
lwrist 1.72306
lhand -25.358 -3.61983
lfingers 7.12502
lthumb 1.16577 26.3567
rfemur -10.948 -2.60285 20.1645
rtibia 19.8552
rfoot -13.3767 -1.72056
rtoes 10.7211
lfemur -9.83628 6.10098 -17.496
ltibia 18.3581
lfoot -11.1878 4.63115
ltoes -0.694621
102
root 0.52566 17.5569 -13.782 5.15254 -1.53135 -1.90303
lowerback -2.66926 -0.339718 0.44027
upperback 2.38479 -0.5367 1.73391
thorax 3.9659 -0.281302 1.50794
lowerneck -13.9357 0.234905 -2.18493
upperneck 30.067 0.662449 0.844864
head 12.2014 0.150554 0.791853
rclavicle 5.96354e-015 -1.72943e-014
rhumerus -27.6146 -17.8067 -77.9149
rradius 23.8542
rwrist 31.9164
rhand -19.45 -26.4726
rfingers 7.12502
rthumb 6.87073 -56.3411
lclavicle 5.96354e-015 -1.72943e-014
lhumerus -25.1957 3.55771 86.2668
lradius 16.3861
lwrist 1.70856
lhand -25.3747 -3.65855
lfingers 7.12502
lthumb 1.14968 26.3181
rfemur -10.943 -2.59805 20.1573
rtibia 19.8615
rfoot -13.3828 -1.72439
rtoes 10.7026
lfemur -9.82625 6.0978 -17.5023
ltibia 18.3565
lfoot -11.1885 4.63867
ltoes -0.684834
103
root 0.526277 17.5568 -13.7809 5.1487 -1.5375 -1.89759
lowerback -2.67491 -0.336587 0.43471
upperback 2.38631 -0.53233 1.73244
thorax 3.9706 -0.279273 1.5098
lowerneck -13.9311 0.232976 -2.18626
upperneck 30.0658 0.658487 0.849381
head 12.2 0.149242 0.79319
rclavicle -9.93923e-017 1.76918e-014
rhumerus -27.6279 -17.8194 -77.9083
rradius 23.8512
rwrist 31.9194
rhand -19.4451 -26.4692
rfingers 7.12502
rthumb 6.87552 -56.3376
lclavicle -9.93923e-017 1.76918e-014
lhumerus -25.1871 3.56452 86.2593
lradius 16.377
lwrist 1.69461
lhand -25.3954 -3.71155
lfingers 7.12502
lthumb 1.12968 26.2652
rfemur -10.939 -2.59322 20.1483
rtibia 19.8684
rfoot -13.3879 -1.72671
rtoes 10.6781
lfemur -9.8153 6.09632 -17.5105
ltibia 18.3528
lfoot -11.1891 4.64502
ltoes -0.671215
104
root 0.526874 17.5567 -13.7797 5.14392 -1.54325 -1.89124
lowerback -2.67991 -0.333286 0.428121
upperback 2.3884 -0.527653 1.7301
thorax 3.97553 -0.27711 1.51135
lowerneck -13.9248 0.229672 -2.18794
upperneck 30.0621 0.652257 0.854911
head 12.1973 0.147031 0.794617
rclavicle -3.77691e-015 3.97569e-015
rhumerus -27.6425 -17.8243 -77.9051
rradius 23.8528
rwrist 31.912
rhand -19.4471 -26.4575
rfingers 7.12502
rthumb 6.87357 -56.326
lclavicle -3.77691e-015 3.97569e-015
lhumerus -25.1753 3.56356 86.2536
lradius 16.3688
lwrist 1.69267
lhand -25.4036 -3.73296
lfingers 7.12502
lthumb 1.12181 26.2438
rfemur -10.9345 -2.58822 20.1385
rtibia 19.8754
rfoot -13.3931 -1.72987
rtoes 10.6553
lfemur -9.80352 6.09565 -17.5194
ltibia 18.349
lfoot -11.1901 4.65043
ltoes -0.665853
105
root 0.527429 17.5566 -13.7787 5.14042 -1.54731 -1.88523
lowerback -2.68432 -0.330187 0.421265
upperback 2.38904 -0.523202 1.72788
thorax 3.97861 -0.275062 1.51316
lowerneck -13.9188 0.226248 -2.18817
upperneck 30.0586 0.646121 0.858373
head 12.1947 0.14476 0.795029
rclavicle 7.25564e-015 -1.5704e-014
rhumerus -27.6584 -17.83 -77.9014
rradius 23.8539
rwrist 31.9067
rhand -19.4543 -26.4449
rfingers 7.12502
rthumb 6.86659 -56.3136
lclavicle 7.25564e-015 -1.5704e-014
lhumerus -25.1617 3.5653 86.2469
lradius 16.3543
lwrist 1.68583
lhand -25.4093 -3.76966
lfingers 7.12502
lthumb 1.11623 26.2072
rfemur -10.9317 -2.58322 20.1296
rtibia 19.8817
rfoot -13.397 -1.73469
rtoes 10.6325
lfemur -9.79473 6.09501 -17.5279
ltibia 18.3466
lfoot -11.1916 4.65476
ltoes -0.665611
106
root 0.527943 17.5564 -13.7779 5.13746 -1.55009 -1.88071
lowerback -2.68766 -0.327735 0.415625
upperback 2.38913 -0.519653 1.72594
thorax 3.98055 -0.27343 1.51453
lowerneck -13.9157 0.222794 -2.18706
upperneck 30.0571 0.639821 0.861276
head 12.1935 0.142475 0.795004
rclavicle 6.85807e-015 -1.76918e-014
rhumerus -27.6746 -17.8368 -77.8982
rradius 23.8553
rwrist 31.9022
rhand -19.4635 -26.431
rfingers 7.12502
rthumb 6.85776 -56.2999
lclavicle 6.85807e-015 -1.76918e-014
lhumerus -25.1482 3.56825 86.2397
lradius 16.3428
lwrist 1.68362
lhand -25.4154 -3.78813
lfingers 7.12502
lthumb 1.11033 26.1887
rfemur -10.9292 -2.57704 20.1229
rtibia 19.8875
rfoot -13.4005 -1.74237
rtoes 10.6076
lfemur -9.78833 6.09522 -17.5345
ltibia 18.3459
lfoot -11.1939 4.65807
ltoes -0.673118
107
root 0.528432 17.5562 -13.7773 5.13483 -1.55159 -1.877
lowerback -2.6903 -0.32586 0.410565
upperback 2.38985 -0.516918 1.72442
thorax 3.98276 -0.272195 1.51596
lowerneck -13.9199 0.22046 -2.18412
upperneck 30.0586 0.635442 0.862289
head 12.1951 0.140982 0.794284
rclavicle 2.43511e-015 4.96962e-015
rhumerus -27.6893 -17.8442 -77.8952
rradius 23.8578
rwrist 31.8987
rhand -19.477 -26.4158
rfingers 7.12502
rthumb 6.84468 -56.2852
lclavicle 2.43511e-015 4.96962e-015
lhumerus -25.1331 3.57873 86.2304
lradius 16.3291
lwrist 1.6751
lhand -25.4286 -3.82998
lfingers 7.12502
lthumb 1.09766 26.1469
rfemur -10.9266 -2.57103 20.1172
rtibia 19.8922
rfoot -13.4035 -1.75022
rtoes 10.5905
lfemur -9.78397 6.09631 -17.54
ltibia 18.3474
lfoot -11.1965 4.6583
ltoes -0.675211
108
root 0.528925 17.5561 -13.7766 5.13228 -1.55222 -1.874
lowerback -2.69181 -0.325174 0.407025
upperback 2.38892 -0.515787 1.7228
thorax 3.98263 -0.271705 1.51633
lowerneck -13.9199 0.219547 -2.17977
upperneck 30.0587 0.632966 0.862114
head 12.1952 0.140351 0.79311
rclavicle 4.47266e-016 3.77691e-015
rhumerus -27.7061 -17.8528 -77.8922
rradius 23.8596
rwrist 31.9006
rhand -19.4894 -26.4127
rfingers 7.12502
rthumb 6.83276 -56.2825
lclavicle 4.47266e-016 3.77691e-015
lhumerus -25.125 3.59273 86.2194
lradius 16.3239
lwrist 1.66975
lhand -25.439 -3.85978
lfingers 7.12502
lthumb 1.08759 26.1172
rfemur -10.9236 -2.56601 20.1121
rtibia 19.8967
rfoot -13.4068 -1.75703
rtoes 10.5815
lfemur -9.77978 6.09817 -17.5448
ltibia 18.3491
lfoot -11.1996 4.65751
ltoes -0.681569
109
root 0.529419 17.5559 -13.776 5.12981 -1.55437 -1.87486
lowerback -2.69327 -0.323801 0.408143
upperback 2.38751 -0.513962 1.72177
thorax 3.98193 -0.270743 1.51475
lowerneck -13.9181 0.219283 -2.17552
upperneck 30.0591 0.63157 0.861462
head 12.195 0.140126 0.791924
rclavicle 2.83268e-015 -5.96354e-016
rhumerus -27.7231 -17.869 -77.8876
rradius 23.8588
rwrist 31.9102
rhand -19.5018 -26.4181
rfingers 7.12502
rthumb 6.82081 -56.2882
lclavicle 2.83268e-015 -5.96354e-016
lhumerus -25.1189 3.60522 86.2087
lradius 16.3207
lwrist 1.66909
lhand -25.4533 -3.9005
lfingers 7.12502
lthumb 1.07379 26.0765
rfemur -10.9203 -2.55941 20.1109
rtibia 19.9006
rfoot -13.4095 -1.76301
rtoes 10.5783
lfemur -9.77497 6.10249 -17.5455
ltibia 18.3501
lfoot -11.2032 4.65519
ltoes -0.679733
